<svg width="32" height="32" viewBox="0 0 32 32" fill="none" xmlns="http://www.w3.org/2000/svg">
<path d="M0 10.7333C0 6.93673 0 5.03843 0.750577 3.5935C1.38308 2.37588 2.37588 1.38308 3.5935 0.750577C5.03843 0 6.93673 0 10.7333 0H21.2667C25.0633 0 26.9616 0 28.4065 0.750577C29.6241 1.38308 30.6169 2.37588 31.2494 3.5935C32 5.03843 32 6.93673 32 10.7333V21.2667C32 25.0633 32 26.9616 31.2494 28.4065C30.6169 29.6241 29.6241 30.6169 28.4065 31.2494C26.9616 32 25.0633 32 21.2667 32H10.7333C6.93673 32 5.03843 32 3.5935 31.2494C2.37588 30.6169 1.38308 29.6241 0.750577 28.4065C0 26.9616 0 25.0633 0 21.2667V10.7333Z" fill="url(#paint0_linear_424_3190)"/>
<path d="M22.2222 20.4445L22.9333 16H18.6666V12.8889C18.6666 11.6445 19.1111 10.6667 21.0666 10.6667H23.1111V6.57778C21.9555 6.40001 20.7111 6.22223 19.5555 6.22223C15.9111 6.22223 13.3333 8.44445 13.3333 12.4445V16H9.33331V20.4445H13.3333V32C15.1111 32 16.8889 32 18.6666 32V20.4445H22.2222Z" fill="white"/>
<path d="M22.2223 20.4449L22.9334 16.0004H18.6667V12.8893C18.6667 11.6449 19.1112 10.6671 21.0667 10.6671H23.1112V6.57821C21.9556 6.40043 20.7112 6.22266 19.5556 6.22266C15.9112 6.22266 13.3334 8.44488 13.3334 12.4449V16.0004H9.33337V20.4449H13.3334V32.0004C15.1112 32.0004 16.8889 32.0004 18.6667 32.0004V20.4449H22.2223Z" fill="white"/>
<defs>
<linearGradient id="paint0_linear_424_3190" x1="16" y1="31.065" x2="16" y2="0" gradientUnits="userSpaceOnUse">
<stop stop-color="#0062E0"/>
<stop offset="1" stop-color="#19AFFF"/>
</linearGradient>
</defs>
</svg>
