<svg width="32" height="32" viewBox="0 0 32 32" fill="none" xmlns="http://www.w3.org/2000/svg">
<path d="M0 10.7333C0 6.93673 0 5.03843 0.750577 3.5935C1.38308 2.37588 2.37588 1.38308 3.5935 0.750577C5.03843 0 6.93673 0 10.7333 0H21.2667C25.0633 0 26.9616 0 28.4065 0.750577C29.6241 1.38308 30.6169 2.37588 31.2494 3.5935C32 5.03843 32 6.93673 32 10.7333V21.2667C32 25.0633 32 26.9616 31.2494 28.4065C30.6169 29.6241 29.6241 30.6169 28.4065 31.2494C26.9616 32 25.0633 32 21.2667 32H10.7333C6.93673 32 5.03843 32 3.5935 31.2494C2.37588 30.6169 1.38308 29.6241 0.750577 28.4065C0 26.9616 0 25.0633 0 21.2667V10.7333Z" fill="white"/>
<path d="M0.166667 10.7333C0.166667 8.83223 0.166801 7.4166 0.259917 6.29533C0.352868 5.17606 0.537608 4.36504 0.898479 3.67033C1.51517 2.48315 2.48315 1.51517 3.67033 0.898479C4.36504 0.537608 5.17606 0.352868 6.29533 0.259917C7.4166 0.166801 8.83223 0.166667 10.7333 0.166667H21.2667C23.1678 0.166667 24.5834 0.166801 25.7047 0.259917C26.8239 0.352868 27.635 0.537608 28.3297 0.898479C29.5168 1.51517 30.4848 2.48315 31.1015 3.67033C31.4624 4.36504 31.6471 5.17606 31.7401 6.29533C31.8332 7.4166 31.8333 8.83223 31.8333 10.7333V21.2667C31.8333 23.1678 31.8332 24.5834 31.7401 25.7047C31.6471 26.8239 31.4624 27.635 31.1015 28.3297C30.4848 29.5168 29.5168 30.4848 28.3297 31.1015C27.635 31.4624 26.8239 31.6471 25.7047 31.7401C24.5834 31.8332 23.1678 31.8333 21.2667 31.8333H10.7333C8.83223 31.8333 7.4166 31.8332 6.29533 31.7401C5.17606 31.6471 4.36504 31.4624 3.67033 31.1015C2.48315 30.4848 1.51517 29.5168 0.898479 28.3297C0.537608 27.635 0.352868 26.8239 0.259917 25.7047C0.166801 24.5834 0.166667 23.1678 0.166667 21.2667V10.7333Z" stroke="black" stroke-opacity="0.15" stroke-width="0.333333"/>
<path fill-rule="evenodd" clip-rule="evenodd" d="M25.6 16.2273C25.6 15.5182 25.5364 14.8364 25.4182 14.1819H16V18.0501H21.3818C21.15 19.3001 20.4455 20.3592 19.3864 21.0683V23.5774H22.6182C24.5091 21.8364 25.6 19.2728 25.6 16.2273Z" fill="#4285F4"/>
<path fill-rule="evenodd" clip-rule="evenodd" d="M16.0002 26C18.7002 26 20.9638 25.1046 22.6184 23.5773L19.3866 21.0682C18.4911 21.6682 17.3456 22.0228 16.0002 22.0228C13.3956 22.0228 11.1911 20.2637 10.4047 17.9H7.0638V20.4909C8.70926 23.7591 12.0911 26 16.0002 26Z" fill="#34A853"/>
<path fill-rule="evenodd" clip-rule="evenodd" d="M10.4046 17.9001C10.2046 17.3001 10.0909 16.6592 10.0909 16.0001C10.0909 15.341 10.2046 14.7001 10.4046 14.1001V11.5092H7.06364C6.38636 12.8592 6 14.3864 6 16.0001C6 17.6137 6.38636 19.141 7.06364 20.491L10.4046 17.9001Z" fill="#FBBC05"/>
<path fill-rule="evenodd" clip-rule="evenodd" d="M16.0002 9.97731C17.4684 9.97731 18.7866 10.4819 19.8229 11.4728L22.6911 8.60458C20.9593 6.99094 18.6956 6.00003 16.0002 6.00003C12.0911 6.00003 8.70926 8.24094 7.0638 11.5091L10.4047 14.1C11.1911 11.7364 13.3956 9.97731 16.0002 9.97731Z" fill="#EA4335"/>
</svg>
