<svg width="32" height="32" viewBox="0 0 32 32" fill="none" xmlns="http://www.w3.org/2000/svg">
<g clip-path="url(#clip0_424_3195)">
<g clip-path="url(#clip1_424_3195)">
<path d="M0.0181274 10.7333C0.0181274 6.93673 0.0181274 5.03843 0.768705 3.5935C1.40121 2.37588 2.39401 1.38308 3.61163 0.750577C5.05655 0 6.95486 0 10.7515 0H21.2848C25.0814 0 26.9797 0 28.4246 0.750577C29.6422 1.38308 30.635 2.37588 31.2676 3.5935C32.0181 5.03843 32.0181 6.93673 32.0181 10.7333V21.2667C32.0181 25.0633 32.0181 26.9616 31.2676 28.4065C30.635 29.6241 29.6422 30.6169 28.4246 31.2494C26.9797 32 25.0814 32 21.2848 32H10.7515C6.95486 32 5.05655 32 3.61163 31.2494C2.39401 30.6169 1.40121 29.6241 0.768705 28.4065C0.0181274 26.9616 0.0181274 25.0633 0.0181274 21.2667V10.7333Z" fill="url(#paint0_radial_424_3195)"/>
<path d="M0.0181274 10.7333C0.0181274 6.93673 0.0181274 5.03843 0.768705 3.5935C1.40121 2.37588 2.39401 1.38308 3.61163 0.750577C5.05655 0 6.95486 0 10.7515 0H21.2848C25.0814 0 26.9797 0 28.4246 0.750577C29.6422 1.38308 30.635 2.37588 31.2676 3.5935C32.0181 5.03843 32.0181 6.93673 32.0181 10.7333V21.2667C32.0181 25.0633 32.0181 26.9616 31.2676 28.4065C30.635 29.6241 29.6422 30.6169 28.4246 31.2494C26.9797 32 25.0814 32 21.2848 32H10.7515C6.95486 32 5.05655 32 3.61163 31.2494C2.39401 30.6169 1.40121 29.6241 0.768705 28.4065C0.0181274 26.9616 0.0181274 25.0633 0.0181274 21.2667V10.7333Z" fill="url(#paint1_radial_424_3195)"/>
<path d="M15.9999 4.36365C12.8397 4.36365 12.4432 4.37747 11.202 4.43395C9.96323 4.49068 9.11768 4.6868 8.37782 4.97456C7.61251 5.27177 6.96332 5.66934 6.31655 6.31637C5.6693 6.96316 5.27174 7.61237 4.97356 8.37746C4.68509 9.11759 4.48873 9.9634 4.43297 11.2017C4.37746 12.4429 4.36292 12.8398 4.36292 16C4.36292 19.1603 4.37698 19.5556 4.43322 20.7969C4.49018 22.0356 4.6863 22.8812 4.97381 23.6211C5.27125 24.3864 5.66881 25.0356 6.31583 25.6824C6.96235 26.3297 7.61154 26.7283 8.37637 27.0255C9.11671 27.3132 9.9625 27.5093 11.201 27.5661C12.4422 27.6226 12.8385 27.6364 15.9984 27.6364C19.1588 27.6364 19.5542 27.6226 20.7954 27.5661C22.0341 27.5093 22.8807 27.3132 23.621 27.0255C24.3861 26.7283 25.0343 26.3297 25.6808 25.6824C26.3281 25.0356 26.7256 24.3864 27.0238 23.6213C27.3099 22.8812 27.5062 22.0354 27.5644 20.7971C27.6201 19.5559 27.6347 19.1603 27.6347 16C27.6347 12.8398 27.6201 12.4432 27.5644 11.2019C27.5062 9.96316 27.3099 9.11759 27.0238 8.37771C26.7256 7.61237 26.3281 6.96316 25.6808 6.31637C25.0336 5.6691 24.3863 5.27153 23.6203 4.97456C22.8785 4.6868 22.0324 4.49068 20.7937 4.43395C19.5525 4.37747 19.1574 4.36365 15.9963 4.36365H15.9999ZM14.956 6.46062C15.2659 6.46013 15.6115 6.46062 15.9999 6.46062C19.1067 6.46062 19.4749 6.47177 20.7018 6.52753C21.8363 6.5794 22.4521 6.76898 22.8622 6.92825C23.4052 7.13916 23.7924 7.39128 24.1994 7.79856C24.6067 8.20583 24.8588 8.59371 25.0702 9.13674C25.2294 9.54643 25.4192 10.1622 25.4709 11.2967C25.5266 12.5234 25.5388 12.8919 25.5388 15.9973C25.5388 19.1028 25.5266 19.4713 25.4709 20.6979C25.419 21.8325 25.2294 22.4483 25.0702 22.8579C24.8593 23.401 24.6067 23.7876 24.1994 24.1947C23.7921 24.6019 23.4055 24.8541 22.8622 25.065C22.4525 25.225 21.8363 25.4141 20.7018 25.4659C19.4752 25.5217 19.1067 25.5338 15.9999 25.5338C12.8928 25.5338 12.5246 25.5217 11.298 25.4659C10.1635 25.4136 9.54773 25.224 9.13732 25.0647C8.5943 24.8538 8.20643 24.6017 7.79917 24.1944C7.39191 23.7872 7.1398 23.4003 6.92841 22.857C6.76915 22.4473 6.57933 21.8315 6.5277 20.697C6.47194 19.4703 6.46079 19.1018 6.46079 15.9944C6.46079 12.887 6.47194 12.5205 6.5277 11.2938C6.57958 10.1593 6.76915 9.54353 6.92841 9.13334C7.13932 8.59031 7.39191 8.20243 7.79917 7.79516C8.20643 7.38789 8.5943 7.13577 9.13732 6.92437C9.54749 6.76437 10.1635 6.57528 11.298 6.52316C12.3714 6.47468 12.7874 6.46013 14.956 6.45771V6.46062ZM22.2111 8.39274C21.4402 8.39274 20.8148 9.01746 20.8148 9.78862C20.8148 10.5595 21.4402 11.185 22.2111 11.185C22.982 11.185 23.6074 10.5595 23.6074 9.78862C23.6074 9.01771 22.982 8.39225 22.2111 8.39225V8.39274ZM15.9999 10.0243C12.6999 10.0243 10.0243 12.6999 10.0243 16C10.0243 19.3001 12.6999 21.9746 15.9999 21.9746C19.2999 21.9746 21.9745 19.3001 21.9745 16C21.9745 12.6999 19.2997 10.0243 15.9997 10.0243H15.9999ZM15.9999 12.1212C18.1419 12.1212 19.8786 13.8577 19.8786 16C19.8786 18.1421 18.1419 19.8788 15.9999 19.8788C13.8577 19.8788 12.1212 18.1421 12.1212 16C12.1212 13.8577 13.8577 12.1212 15.9999 12.1212Z" fill="white"/>
</g>
<path d="M16.0005 4.36328C12.8404 4.36328 12.4438 4.3771 11.2026 4.43358C9.96384 4.49031 9.11829 4.68643 8.37843 4.97419C7.61312 5.2714 6.96393 5.66898 6.31716 6.31601C5.66991 6.9628 5.27235 7.61201 4.97417 8.3771C4.6857 9.11722 4.48934 9.96304 4.43358 11.2013C4.37807 12.4426 4.36353 12.8394 4.36353 15.9996C4.36353 19.1599 4.37759 19.5553 4.43383 20.7965C4.49079 22.0353 4.68691 22.8809 4.97442 23.6207C5.27186 24.3861 5.66943 25.0353 6.31644 25.6821C6.96296 26.3293 7.61215 26.7279 8.37698 27.0251C9.11732 27.3129 9.96311 27.509 11.2016 27.5657C12.4428 27.6222 12.8391 27.636 15.9991 27.636C19.1594 27.636 19.5548 27.6222 20.796 27.5657C22.0347 27.509 22.8813 27.3129 23.6216 27.0251C24.3867 26.7279 25.0349 26.3293 25.6814 25.6821C26.3287 25.0353 26.7262 24.3861 27.0244 23.621C27.3105 22.8809 27.5068 22.035 27.565 20.7967C27.6208 19.5555 27.6353 19.1599 27.6353 15.9996C27.6353 12.8394 27.6208 12.4428 27.565 11.2016C27.5068 9.9628 27.3105 9.11722 27.0244 8.37734C26.7262 7.61201 26.3287 6.9628 25.6814 6.31601C25.0342 5.66874 24.3869 5.27116 23.6209 4.97419C22.8791 4.68643 22.0331 4.49031 20.7943 4.43358C19.5531 4.3771 19.158 4.36328 15.9969 4.36328H16.0005ZM14.9567 6.46025C15.2665 6.45977 15.6122 6.46025 16.0005 6.46025C19.1073 6.46025 19.4756 6.4714 20.7024 6.52716C21.8369 6.57904 22.4527 6.76861 22.8628 6.92789C23.4059 7.1388 23.793 7.39092 24.2 7.79819C24.6073 8.20546 24.8594 8.59334 25.0708 9.13637C25.23 9.54607 25.4199 10.1618 25.4715 11.2964C25.5272 12.523 25.5394 12.8915 25.5394 15.997C25.5394 19.1024 25.5272 19.4709 25.4715 20.6976C25.4196 21.8321 25.23 22.4479 25.0708 22.8576C24.8599 23.4006 24.6073 23.7873 24.2 24.1943C23.7928 24.6016 23.4061 24.8537 22.8628 25.0646C22.4532 25.2246 21.8369 25.4137 20.7024 25.4656C19.4758 25.5213 19.1073 25.5335 16.0005 25.5335C12.8934 25.5335 12.5252 25.5213 11.2986 25.4656C10.1641 25.4132 9.54834 25.2236 9.13793 25.0644C8.59491 24.8535 8.20705 24.6013 7.79978 24.1941C7.39252 23.7868 7.14041 23.3999 6.92902 22.8566C6.76976 22.4469 6.57994 21.8312 6.52831 20.6966C6.47255 19.4699 6.4614 19.1015 6.4614 15.9941C6.4614 12.8867 6.47255 12.5201 6.52831 11.2935C6.58019 10.1589 6.76976 9.54316 6.92902 9.13298C7.13993 8.58995 7.39252 8.20207 7.79978 7.7948C8.20705 7.38752 8.59491 7.1354 9.13793 6.92401C9.5481 6.76401 10.1641 6.57492 11.2986 6.5228C12.372 6.47431 12.788 6.45977 14.9567 6.45734V6.46025ZM22.2117 8.39237C21.4408 8.39237 20.8154 9.0171 20.8154 9.78825C20.8154 10.5592 21.4408 11.1846 22.2117 11.1846C22.9826 11.1846 23.608 10.5592 23.608 9.78825C23.608 9.01734 22.9826 8.39189 22.2117 8.39189V8.39237ZM16.0005 10.0239C12.7005 10.0239 10.0249 12.6995 10.0249 15.9996C10.0249 19.2998 12.7005 21.9742 16.0005 21.9742C19.3005 21.9742 21.9751 19.2998 21.9751 15.9996C21.9751 12.6995 19.3003 10.0239 16.0003 10.0239H16.0005ZM16.0005 12.1209C18.1425 12.1209 19.8792 13.8573 19.8792 15.9996C19.8792 18.1417 18.1425 19.8784 16.0005 19.8784C13.8583 19.8784 12.1218 18.1417 12.1218 15.9996C12.1218 13.8573 13.8583 12.1209 16.0005 12.1209Z" fill="white"/>
</g>
<defs>
<radialGradient id="paint0_radial_424_3195" cx="0" cy="0" r="1" gradientUnits="userSpaceOnUse" gradientTransform="translate(8.51817 34.4647) rotate(-90) scale(31.7144 29.4969)">
<stop stop-color="#FFDD55"/>
<stop offset="0.1" stop-color="#FFDD55"/>
<stop offset="0.5" stop-color="#FF543E"/>
<stop offset="1" stop-color="#C837AB"/>
</radialGradient>
<radialGradient id="paint1_radial_424_3195" cx="0" cy="0" r="1" gradientUnits="userSpaceOnUse" gradientTransform="translate(-5.34204 2.30523) rotate(78.6806) scale(14.1765 58.4359)">
<stop stop-color="#3771C8"/>
<stop offset="0.128" stop-color="#3771C8"/>
<stop offset="1" stop-color="#6600FF" stop-opacity="0"/>
</radialGradient>
<clipPath id="clip0_424_3195">
<rect width="32" height="32" fill="white"/>
</clipPath>
<clipPath id="clip1_424_3195">
<rect width="32" height="32" fill="white"/>
</clipPath>
</defs>
</svg>
