<svg width="32" height="32" viewBox="0 0 32 32" fill="none" xmlns="http://www.w3.org/2000/svg">
<path d="M0 10.7333C0 6.93673 0 5.03843 0.750577 3.5935C1.38308 2.37588 2.37588 1.38308 3.5935 0.750577C5.03843 0 6.93673 0 10.7333 0H21.2667C25.0633 0 26.9616 0 28.4065 0.750577C29.6241 1.38308 30.6169 2.37588 31.2494 3.5935C32 5.03843 32 6.93673 32 10.7333V21.2667C32 25.0633 32 26.9616 31.2494 28.4065C30.6169 29.6241 29.6241 30.6169 28.4065 31.2494C26.9616 32 25.0633 32 21.2667 32H10.7333C6.93673 32 5.03843 32 3.5935 31.2494C2.37588 30.6169 1.38308 29.6241 0.750577 28.4065C0 26.9616 0 25.0633 0 21.2667V10.7333Z" fill="#1EA1F2"/>
<path fill-rule="evenodd" clip-rule="evenodd" d="M24.8821 12.1015C24.8899 12.3014 24.8925 12.5012 24.8925 12.701C24.8925 18.7607 20.6298 25.7562 12.8348 25.7562C10.4404 25.7562 8.21385 24.993 6.33789 23.6939C6.6695 23.7302 7.00628 23.7575 7.34822 23.7575C9.33357 23.7575 11.1622 23.0215 12.6126 21.786C10.7582 21.7587 9.19232 20.4232 8.65227 18.6062C8.91153 18.6607 9.17852 18.6881 9.45156 18.6881C9.83657 18.6881 10.2104 18.6336 10.5687 18.5246C8.62813 18.1067 7.16649 16.2534 7.16649 14.0276C7.16649 14.0004 7.16649 13.9912 7.16649 13.973C7.7384 14.3092 8.393 14.518 9.08808 14.5453C7.94942 13.7186 7.20092 12.3104 7.20092 10.7206C7.20092 9.88475 7.40936 9.09432 7.77628 8.41295C9.86585 11.1929 12.9899 13.019 16.5118 13.2098C16.4395 12.8737 16.4024 12.5195 16.4024 12.1652C16.4024 9.63045 18.2999 7.57721 20.641 7.57721C21.8597 7.57721 22.9605 8.13147 23.7331 9.0218C24.7004 8.82193 25.6065 8.44039 26.4265 7.91346C26.1087 8.98548 25.4377 9.88471 24.5608 10.448C25.4187 10.339 26.237 10.0938 26.9958 9.73045C26.4265 10.648 25.7099 11.4565 24.8821 12.1015Z" fill="white"/>
<path fill-rule="evenodd" clip-rule="evenodd" d="M24.8819 12.1024C24.8896 12.3023 24.8922 12.5021 24.8922 12.7019C24.8922 18.7616 20.6296 25.7571 12.8346 25.7571C10.4401 25.7571 8.2136 24.994 6.33765 23.6948C6.66926 23.7311 7.00604 23.7585 7.34798 23.7585C9.33333 23.7585 11.1619 23.0224 12.6124 21.7869C10.758 21.7596 9.19208 20.4241 8.65203 18.6072C8.91128 18.6617 9.17828 18.689 9.45131 18.689C9.83633 18.689 10.2101 18.6345 10.5684 18.5255C8.62789 18.1076 7.16624 16.2543 7.16624 14.0285C7.16624 14.0013 7.16624 13.9921 7.16624 13.974C7.73816 14.3101 8.39275 14.519 9.08784 14.5462C7.94917 13.7195 7.20068 12.3113 7.20068 10.7215C7.20068 9.88567 7.40912 9.09524 7.77604 8.41387C9.8656 11.1939 12.9896 13.02 16.5116 13.2107C16.4392 12.8746 16.4022 12.5204 16.4022 12.1661C16.4022 9.63137 18.2997 7.57812 20.6407 7.57812C21.8595 7.57812 22.9603 8.13239 23.7329 9.02271C24.7001 8.82284 25.6063 8.4413 26.4262 7.91437C26.1084 8.9864 25.4374 9.88562 24.5606 10.4489C25.4185 10.3399 26.2368 10.0948 26.9956 9.73136C26.4263 10.6489 25.7096 11.4574 24.8819 12.1024Z" fill="white"/>
</svg>
