<svg width="25" height="24" viewBox="0 0 25 24" fill="none" xmlns="http://www.w3.org/2000/svg">
<path d="M10.7308 20.4615C10.7308 21.3111 10.042 22 9.19231 22C8.34263 22 7.65385 21.3111 7.65385 20.4615C7.65385 19.6119 8.34263 18.9231 9.19231 18.9231C10.042 18.9231 10.7308 19.6119 10.7308 20.4615Z" fill="white"/>
<path d="M20.7308 20.4615C20.7308 21.3111 20.042 22 19.1923 22C18.3426 22 17.6538 21.3111 17.6538 20.4615C17.6538 19.6119 18.3426 18.9231 19.1923 18.9231C20.042 18.9231 20.7308 19.6119 20.7308 20.4615Z" fill="white"/>
<path fill-rule="evenodd" clip-rule="evenodd" d="M2.26923 2H3.88462C3.88462 2 4.3993 1.99946 4.81106 2.30961C4.81106 2.30961 5.22281 2.61976 5.36457 3.11539L6.14541 5.84615H22.8173C22.8888 5.84615 22.9599 5.85612 23.0286 5.87575C23.4371 5.99246 23.6737 6.41822 23.5569 6.82671L21.0194 15.708C21.0194 15.708 20.8095 16.4552 20.1896 16.9222C20.1896 16.9222 19.5697 17.3891 18.7981 17.3846L9.59101 17.3846C9.59101 17.3846 8.81492 17.3891 8.19499 16.9222C8.19499 16.9222 7.57508 16.4552 7.36618 15.7115L3.88543 3.53846L2.26923 3.53846C1.8444 3.53846 1.5 3.19407 1.5 2.76923C1.5 2.3444 1.8444 2 2.26923 2ZM8.84536 15.2885L6.58532 7.38462H21.7975L19.5383 15.292C19.5383 15.292 19.4689 15.539 19.264 15.6933C19.264 15.6933 19.0591 15.8477 18.7981 15.8462L9.58207 15.8462C9.58207 15.8462 9.32553 15.8477 9.12063 15.6933C9.12063 15.6933 8.91571 15.539 8.84536 15.2885Z" fill="white"/>
</svg>
