<svg width="21" height="20" viewBox="0 0 21 20" fill="none" xmlns="http://www.w3.org/2000/svg">
<path d="M18.4991 18.5478C18.6284 18.6771 18.804 18.75 18.9868 18.75C19.1695 18.75 19.3448 18.6774 19.474 18.5482C19.6033 18.4189 19.6759 18.2437 19.6759 18.0609C19.6759 17.8781 19.6033 17.7029 19.474 17.5736L15.7495 13.8491L15.2878 13.3874C15.1585 13.2581 14.9832 13.1855 14.8005 13.1855C14.6177 13.1855 14.4421 13.2578 14.3129 13.3871C14.1837 13.5163 14.1114 13.6919 14.1114 13.8746C14.1114 14.0574 14.184 14.2327 14.3132 14.3619L14.7703 14.819L18.4991 18.5478Z" fill="white"/>
<path fill-rule="evenodd" clip-rule="evenodd" d="M1.34253 13.5577C1.34253 13.2125 1.62235 12.9327 1.96753 12.9327H6.96753C7.31271 12.9327 7.59253 13.2125 7.59253 13.5577C7.59253 13.9029 7.31271 14.1827 6.96753 14.1827H1.96753C1.62235 14.1827 1.34253 13.9029 1.34253 13.5577Z" fill="white"/>
<path fill-rule="evenodd" clip-rule="evenodd" d="M1.34253 11.0577C1.34253 10.7125 1.62235 10.4327 1.96753 10.4327H6.96753C7.31271 10.4327 7.59253 10.7125 7.59253 11.0577C7.59253 11.4029 7.31271 11.6827 6.96753 11.6827H1.96753C1.62235 11.6827 1.34253 11.4029 1.34253 11.0577Z" fill="white"/>
<path fill-rule="evenodd" clip-rule="evenodd" d="M1.34253 16.0577C1.34253 15.7125 1.62235 15.4327 1.96753 15.4327H6.96753C7.31271 15.4327 7.59253 15.7125 7.59253 16.0577C7.59253 16.4029 7.31271 16.6827 6.96753 16.6827H1.96753C1.62235 16.6827 1.34253 16.4029 1.34253 16.0577Z" fill="white"/>
<path d="M12.7687 16.0596C13.5973 15.7092 14.3153 15.1908 14.7703 14.819L14.3132 14.3619C14.184 14.2327 14.1114 14.0574 14.1114 13.8746C14.1114 13.6919 14.1837 13.5163 14.3129 13.3871C13.4065 14.2934 12.2318 14.7903 12.2318 14.7903C11.5674 15.0713 10.868 15.1988 10.3705 15.2565C9.99245 15.3004 9.68386 15.613 9.68386 15.9936C9.68386 16.3742 9.99328 16.6851 10.372 16.6472C11.6918 16.5151 12.7687 16.0596 12.7687 16.0596Z" fill="white"/>
<path d="M12.7687 1.45639C12.7687 1.45639 12.7687 1.45639 12.7687 1.45639C11.2957 0.833344 9.68386 0.833344 9.68386 0.833344C8.07205 0.833344 6.59902 1.45638 6.59901 1.45639C6.59901 1.45639 6.59901 1.45639 6.59901 1.45639C5.17676 2.05795 4.08029 3.15441 4.08028 3.15442C4.08028 3.15442 4.08028 3.15442 4.08027 3.15443C2.98381 4.25089 2.38224 5.67315 2.38224 5.67316C2.38224 5.67316 2.38224 5.67316 2.38224 5.67316C2.01368 6.54454 1.86314 7.46448 1.80165 8.07061C1.76324 8.44924 2.06772 8.75801 2.4483 8.75801C2.82888 8.75801 3.1348 8.44834 3.17969 8.07041C3.30267 7.03492 3.65157 6.21004 3.65157 6.21004C4.14841 5.03537 5.05479 4.12899 5.05481 4.12896C5.05481 4.12896 5.05481 4.12896 5.05481 4.12896C5.9612 3.22258 7.13587 2.72573 7.13589 2.72572C7.13589 2.72572 7.13589 2.72572 7.1359 2.72572C8.35152 2.21155 9.68383 2.21155 9.68386 2.21155C9.68386 2.21155 9.68386 2.21155 9.68386 2.21155C11.0162 2.21155 12.2318 2.72571 12.2318 2.72572C12.2318 2.72572 12.2318 2.72572 12.2318 2.72572C13.4065 3.22256 14.3129 4.12895 14.3129 4.12896C14.3129 4.12896 14.3129 4.12896 14.3129 4.12896C15.2193 5.03534 15.7161 6.21001 15.7162 6.21004C15.7162 6.21004 15.7162 6.21004 15.7162 6.21004C16.2303 7.42564 16.2303 8.75793 16.2303 8.75801C16.2303 8.75801 16.2303 8.75801 16.2303 8.75801C16.2303 10.0903 15.7162 11.3059 15.7162 11.306C15.7162 11.306 15.7162 11.306 15.7161 11.306C15.2193 12.4807 14.3129 13.3871 14.3129 13.3871C14.4421 13.2578 14.6177 13.1855 14.8005 13.1855C14.9832 13.1855 15.1585 13.2581 15.2878 13.3874L15.7495 13.8491C16.5517 12.8684 16.9855 11.8429 16.9855 11.8429C16.9855 11.8429 16.9855 11.8429 16.9855 11.8429C17.6085 10.3698 17.6085 8.75808 17.6085 8.75801C17.6085 8.75801 17.6085 8.75801 17.6085 8.758C17.6085 7.14621 16.9855 5.67319 16.9855 5.67316C16.9855 5.67316 16.9855 5.67316 16.9855 5.67316C16.3839 4.25093 15.2875 3.15448 15.2874 3.15442C15.2874 3.15442 15.2874 3.15442 15.2874 3.15442C14.191 2.05796 12.7687 1.4564 12.7687 1.45639Z" fill="white"/>
</svg>
