<svg width="16" height="17" viewBox="0 0 16 17" fill="none" xmlns="http://www.w3.org/2000/svg">
<path fill-rule="evenodd" clip-rule="evenodd" d="M3.83329 1.16667C2.64485 1.16667 1.60799 1.82448 1.06989 2.7899C0.93545 3.03111 1.022 3.33563 1.2632 3.47007C1.50441 3.60451 1.80893 3.51796 1.94337 3.27676C2.31194 2.61551 3.02173 2.16667 3.83329 2.16667H9.33329V3.66667V8.33334C9.33329 8.79053 8.95715 9.16667 8.49996 9.16667H7.83329C7.55715 9.16667 7.33329 9.39053 7.33329 9.66667C7.33329 9.94281 7.55715 10.1667 7.83329 10.1667H8.49996C9.50944 10.1667 10.3333 9.34281 10.3333 8.33334V4.16667H11.06C11.3569 4.16667 11.634 4.32751 11.7869 4.58984L11.7876 4.59108L12.498 5.83334C11.8561 5.8344 11.3333 6.35785 11.3333 7.00001V9.00001C11.3333 9.64281 11.8572 10.1667 12.5 10.1667H14V11.6667C14 12.4972 13.3305 13.1667 12.5 13.1667H12.2643C12.0466 12.3972 11.3391 11.8333 10.5 11.8333C9.66078 11.8333 8.95328 12.3972 8.73564 13.1667H6.93095C6.71331 12.3972 6.00581 11.8333 5.16663 11.8333C4.32744 11.8333 3.61995 12.3972 3.4023 13.1667H3.16663C2.3361 13.1667 1.66663 12.4972 1.66663 11.6667C1.66663 11.3905 1.44277 11.1667 1.16663 11.1667C0.890484 11.1667 0.666626 11.3905 0.666626 11.6667C0.666626 13.0495 1.78382 14.1667 3.16663 14.1667H3.4023C3.61995 14.9362 4.32744 15.5 5.16663 15.5C6.00581 15.5 6.71331 14.9362 6.93095 14.1667H8.73564C8.95328 14.9362 9.66078 15.5 10.5 15.5C11.3391 15.5 12.0466 14.9362 12.2643 14.1667H12.5C13.8828 14.1667 15 13.0495 15 11.6667V9.66667V8.33334C15 8.24651 14.9773 8.16117 14.9343 8.08574L13.7943 6.08573C13.7942 6.08553 13.7941 6.08532 13.794 6.08512M13.0694 6.83334H12.5C12.4094 6.83334 12.3333 6.90948 12.3333 7.00001V9.00001C12.3333 9.09053 12.4094 9.16667 12.5 9.16667H14V8.46583L13.0694 6.83334ZM13.794 6.08512L12.654 4.09179L12.6524 4.08894C12.3251 3.52534 11.7225 3.16667 11.06 3.16667H10.3333V1.66667C10.3333 1.39053 10.1094 1.16667 9.83329 1.16667H3.83329M10.5 12.8333C10.9572 12.8333 11.3333 13.2095 11.3333 13.6667C11.3333 14.1269 10.9602 14.5 10.5 14.5C10.0397 14.5 9.66663 14.1269 9.66663 13.6667C9.66663 13.2095 10.0428 12.8333 10.5 12.8333ZM5.16663 14.5C4.70639 14.5 4.33329 14.1269 4.33329 13.6667C4.33329 13.2095 4.70943 12.8333 5.16663 12.8333C5.62382 12.8333 5.99996 13.2095 5.99996 13.6667C5.99996 14.1269 5.62686 14.5 5.16663 14.5ZM0.666626 5.66667C0.666626 5.39053 0.890484 5.16667 1.16663 5.16667H5.16663C5.44277 5.16667 5.66663 5.39053 5.66663 5.66667C5.66663 5.94281 5.44277 6.16667 5.16663 6.16667H1.16663C0.890484 6.16667 0.666626 5.94281 0.666626 5.66667ZM1.16663 7.16667C0.890484 7.16667 0.666626 7.39053 0.666626 7.66667C0.666626 7.94281 0.890484 8.16667 1.16663 8.16667H3.83329C4.10944 8.16667 4.33329 7.94281 4.33329 7.66667C4.33329 7.39053 4.10944 7.16667 3.83329 7.16667H1.16663ZM0.666626 9.66667C0.666626 9.39053 0.890484 9.16667 1.16663 9.16667H2.49996C2.7761 9.16667 2.99996 9.39053 2.99996 9.66667C2.99996 9.94281 2.7761 10.1667 2.49996 10.1667H1.16663C0.890484 10.1667 0.666626 9.94281 0.666626 9.66667Z" fill="white"/>
</svg>
