<svg width="32" height="32" viewBox="0 0 32 32" fill="none" xmlns="http://www.w3.org/2000/svg">
<path fill-rule="evenodd" clip-rule="evenodd" d="M18.6665 8.99984C16.9521 8.99984 15.6665 10.2855 15.6665 11.9998V17.3998H12.9998V18.7332H15.6665V28.3332H17.6665V18.5998H21.1323L21.413 17.2665H17.6665V12.3998C17.6665 12.1124 17.7391 11.7131 18.0594 11.3927C18.3797 11.0724 18.779 10.9998 19.0665 10.9998H21.6665V8.99984H18.6665ZM13.6665 11.9998C13.6665 9.18089 15.8476 6.99984 18.6665 6.99984H22.2665C22.554 6.99984 22.9533 7.07238 23.2736 7.39273C23.594 7.71308 23.6665 8.11236 23.6665 8.39984V11.5998C23.6665 11.8873 23.594 12.2866 23.2736 12.6069C22.9533 12.9273 22.554 12.9998 22.2665 12.9998H19.6665V15.2665H22.1332C22.6544 15.2665 23.0449 15.548 23.2652 15.8785C23.4658 16.1793 23.5332 16.5182 23.5332 16.7998V16.904L22.989 19.489C22.9485 19.7755 22.8043 19.9792 22.7118 20.086C22.5947 20.2211 22.4646 20.3138 22.3643 20.374C22.1924 20.4772 21.9124 20.5998 21.5998 20.5998H19.6665V30.3332H13.6665V20.7332H12.3998C12.1124 20.7332 11.7131 20.6606 11.3927 20.3403C11.0724 20.0199 10.9998 19.6206 10.9998 19.3332V16.7998C10.9998 16.5124 11.0724 16.1131 11.3927 15.7927C11.7131 15.4724 12.1124 15.3998 12.3998 15.3998H13.6665V11.9998Z" fill="#CCD4D8"/>
<path fill-rule="evenodd" clip-rule="evenodd" d="M5.54028 5.54028C4.31957 6.76099 3.6665 8.76513 3.6665 11.9998V19.9998C3.6665 23.2345 4.31957 25.2387 5.54028 26.4594C6.76099 27.6801 8.76513 28.3332 11.9998 28.3332H19.9998C23.2345 28.3332 25.2387 27.6801 26.4594 26.4594C27.6801 25.2387 28.3332 23.2345 28.3332 19.9998V11.9998C28.3332 8.76513 27.6801 6.76099 26.4594 5.54028C25.2387 4.31957 23.2345 3.6665 19.9998 3.6665H11.9998C8.76513 3.6665 6.76099 4.31957 5.54028 5.54028ZM4.12606 4.12606C5.90536 2.34677 8.56787 1.6665 11.9998 1.6665H19.9998C23.4318 1.6665 26.0943 2.34677 27.8736 4.12606C29.6529 5.90536 30.3332 8.56787 30.3332 11.9998V19.9998C30.3332 23.4318 29.6529 26.0943 27.8736 27.8736C26.0943 29.6529 23.4318 30.3332 19.9998 30.3332H11.9998C8.56787 30.3332 5.90536 29.6529 4.12606 27.8736C2.34677 26.0943 1.6665 23.4318 1.6665 19.9998V11.9998C1.6665 8.56787 2.34677 5.90536 4.12606 4.12606Z" fill="#CCD4D8"/>
</svg>
