<svg width="28" height="24" viewBox="0 0 28 24" fill="none" xmlns="http://www.w3.org/2000/svg">
<path d="M24.2133 1.3199C20.6933 -1.0801 16.3466 0.0398957 14 2.78656C11.6533 0.0398957 7.30663 -1.09344 3.78663 1.3199C1.91996 2.5999 0.746625 4.75989 0.666625 7.0399C0.479959 12.2132 5.06663 16.3599 12.0666 22.7199L12.2 22.8399C13.2133 23.7599 14.7733 23.7599 15.7866 22.8266L15.9333 22.6932C22.9333 16.3466 27.5066 12.1999 27.3333 7.02656C27.2533 4.7599 26.08 2.5999 24.2133 1.3199ZM14.1333 20.7332L14 20.8666L13.8666 20.7332C7.51996 14.9866 3.33329 11.1866 3.33329 7.33323C3.33329 4.66656 5.33329 2.66656 7.99996 2.66656C10.0533 2.66656 12.0533 3.98656 12.76 5.81323H15.2533C15.9466 3.98656 17.9466 2.66656 20 2.66656C22.6666 2.66656 24.6666 4.66656 24.6666 7.33323C24.6666 11.1866 20.48 14.9866 14.1333 20.7332Z" fill="#0D0D0D"/>
</svg>
