<svg width="14" height="14" viewBox="0 0 14 14" fill="none" xmlns="http://www.w3.org/2000/svg">
<path d="M6.99967 0.333374C3.31967 0.333374 0.333008 3.32004 0.333008 7.00004C0.333008 10.68 3.31967 13.6667 6.99967 13.6667C10.6797 13.6667 13.6663 10.68 13.6663 7.00004C13.6663 3.32004 10.6797 0.333374 6.99967 0.333374ZM6.99967 12.3334C4.05967 12.3334 1.66634 9.94004 1.66634 7.00004C1.66634 4.06004 4.05967 1.66671 6.99967 1.66671C9.93967 1.66671 12.333 4.06004 12.333 7.00004C12.333 9.94004 9.93967 12.3334 6.99967 12.3334ZM6.33301 9.66671H7.66634V11H6.33301V9.66671ZM7.40634 3.02671C6.03301 2.82671 4.81967 3.67337 4.45301 4.88671C4.33301 5.27337 4.62634 5.66671 5.03301 5.66671H5.16634C5.43967 5.66671 5.65967 5.47337 5.75301 5.22004C5.96634 4.62671 6.59967 4.22004 7.28634 4.36671C7.91967 4.50004 8.38634 5.12004 8.33301 5.76671C8.26634 6.66004 7.25301 6.85337 6.69967 7.68671C6.69967 7.69337 6.69301 7.69337 6.69301 7.70004C6.68634 7.71337 6.67967 7.72004 6.67301 7.73337C6.61301 7.83337 6.55301 7.94671 6.50634 8.06671C6.49967 8.08671 6.48634 8.10004 6.47967 8.12004C6.47301 8.13337 6.47301 8.14671 6.46634 8.16671C6.38634 8.39337 6.33301 8.66671 6.33301 9.00004H7.66634C7.66634 8.72004 7.73967 8.48671 7.85301 8.28671C7.86634 8.26671 7.87301 8.24671 7.88634 8.22671C7.93967 8.13337 8.00634 8.04671 8.07301 7.96671C8.07967 7.96004 8.08634 7.94671 8.09301 7.94004C8.15968 7.86004 8.23301 7.78671 8.31301 7.71337C8.95301 7.10671 9.81967 6.61337 9.63968 5.34004C9.47967 4.18004 8.56634 3.20004 7.40634 3.02671Z" fill="#3959FE"/>
</svg>
