<svg width="32" height="32" viewBox="0 0 32 32" fill="none" xmlns="http://www.w3.org/2000/svg">
<path fill-rule="evenodd" clip-rule="evenodd" d="M4.12606 4.12606C5.90536 2.34677 8.56787 1.6665 11.9998 1.6665H19.9998C23.4318 1.6665 26.0943 2.34677 27.8736 4.12606C29.6529 5.90536 30.3332 8.56787 30.3332 11.9998V19.9998C30.3332 23.4318 29.6529 26.0943 27.8736 27.8736C26.0943 29.6529 23.4318 30.3332 19.9998 30.3332H11.9998C8.56787 30.3332 5.90536 29.6529 4.12606 27.8736C2.34677 26.0943 1.6665 23.4318 1.6665 19.9998V11.9998C1.6665 8.56787 2.34677 5.90536 4.12606 4.12606ZM5.54028 5.54028C4.31957 6.76099 3.6665 8.76513 3.6665 11.9998V19.9998C3.6665 23.2345 4.31957 25.2387 5.54028 26.4594C6.76099 27.6801 8.76513 28.3332 11.9998 28.3332H19.9998C23.2345 28.3332 25.2387 27.6801 26.4594 26.4594C27.6801 25.2387 28.3332 23.2345 28.3332 19.9998V11.9998C28.3332 8.76513 27.6801 6.76099 26.4594 5.54028C25.2387 4.31957 23.2345 3.6665 19.9998 3.6665H11.9998C8.76513 3.6665 6.76099 4.31957 5.54028 5.54028Z" fill="#CCD4D8"/>
<path fill-rule="evenodd" clip-rule="evenodd" d="M15.9998 12.3332C13.9748 12.3332 12.3332 13.9748 12.3332 15.9998C12.3332 18.0249 13.9748 19.6665 15.9998 19.6665C18.0249 19.6665 19.6665 18.0249 19.6665 15.9998C19.6665 13.9748 18.0249 12.3332 15.9998 12.3332ZM10.3332 15.9998C10.3332 12.8702 12.8702 10.3332 15.9998 10.3332C19.1295 10.3332 21.6665 12.8702 21.6665 15.9998C21.6665 19.1295 19.1295 21.6665 15.9998 21.6665C12.8702 21.6665 10.3332 19.1295 10.3332 15.9998Z" fill="#CCD4D8"/>
<path fill-rule="evenodd" clip-rule="evenodd" d="M22.1813 9.33317C22.1813 8.59679 22.7783 7.99984 23.5147 7.99984H23.5301C24.2664 7.99984 24.8634 8.59679 24.8634 9.33317C24.8634 10.0696 24.2664 10.6665 23.5301 10.6665H23.5147C22.7783 10.6665 22.1813 10.0696 22.1813 9.33317Z" fill="#CCD4D8"/>
</svg>
