<svg width="20" height="20" viewBox="0 0 20 20" fill="none" xmlns="http://www.w3.org/2000/svg">
<path fill-rule="evenodd" clip-rule="evenodd" d="M3.93763 7.00494C4.68198 3.73361 7.46687 2.08142 10.3141 2.08335C13.1616 2.08527 15.9448 3.74143 16.6852 7.01298L16.6852 7.01301C17.5662 10.9045 15.1552 14.2713 12.8785 16.4575L12.8774 16.4586C11.4454 17.8408 9.17869 17.8425 7.73661 16.4581C5.46818 14.2718 3.05675 10.8968 3.93763 7.00494ZM10.315 0.833345C13.6321 0.835588 17.0115 2.79191 17.9044 6.73702C18.9399 11.3116 16.0851 15.1111 13.7452 17.3584C11.8274 19.209 8.79468 19.2074 6.87019 17.3591L6.8694 17.3584C4.53794 15.1114 1.68295 11.3033 2.71854 6.72868L2.71868 6.72804C3.61612 2.78295 6.9978 0.831103 10.315 0.833345ZM8.33645 8.38335C8.33645 7.29258 9.22069 6.40835 10.3114 6.40835C11.4022 6.40835 12.2864 7.29258 12.2864 8.38335C12.2864 9.47411 11.4022 10.3583 10.3114 10.3583C9.22069 10.3583 8.33645 9.47411 8.33645 8.38335ZM10.3114 5.15835C8.53033 5.15835 7.08645 6.60223 7.08645 8.38335C7.08645 10.1645 8.53033 11.6083 10.3114 11.6083C12.0926 11.6083 13.5364 10.1645 13.5364 8.38335C13.5364 6.60223 12.0926 5.15835 10.3114 5.15835Z" fill="#59BF8E"/>
</svg>
