<svg width="20" height="20" viewBox="0 0 20 20" fill="none" xmlns="http://www.w3.org/2000/svg">
<circle cx="10" cy="10" r="10" fill="#C4C4C4"/>
<path d="M10.94 9.9998L13.8066 7.1398C13.9322 7.01426 14.0027 6.844 14.0027 6.66646C14.0027 6.48893 13.9322 6.31867 13.8066 6.19313C13.6811 6.0676 13.5108 5.99707 13.3333 5.99707C13.1558 5.99707 12.9855 6.0676 12.86 6.19313L9.99996 9.0598L7.13996 6.19313C7.01442 6.0676 6.84416 5.99707 6.66663 5.99707C6.48909 5.99707 6.31883 6.0676 6.19329 6.19313C6.06776 6.31867 5.99723 6.48893 5.99723 6.66646C5.99723 6.844 6.06776 7.01426 6.19329 7.1398L9.05996 9.9998L6.19329 12.8598C6.13081 12.9218 6.08121 12.9955 6.04737 13.0767C6.01352 13.158 5.99609 13.2451 5.99609 13.3331C5.99609 13.4211 6.01352 13.5083 6.04737 13.5895C6.08121 13.6708 6.13081 13.7445 6.19329 13.8065C6.25527 13.8689 6.329 13.9185 6.41024 13.9524C6.49148 13.9862 6.57862 14.0037 6.66663 14.0037C6.75463 14.0037 6.84177 13.9862 6.92301 13.9524C7.00425 13.9185 7.07798 13.8689 7.13996 13.8065L9.99996 10.9398L12.86 13.8065C12.9219 13.8689 12.9957 13.9185 13.0769 13.9524C13.1581 13.9862 13.2453 14.0037 13.3333 14.0037C13.4213 14.0037 13.5084 13.9862 13.5897 13.9524C13.6709 13.9185 13.7446 13.8689 13.8066 13.8065C13.8691 13.7445 13.9187 13.6708 13.9526 13.5895C13.9864 13.5083 14.0038 13.4211 14.0038 13.3331C14.0038 13.2451 13.9864 13.158 13.9526 13.0767C13.9187 12.9955 13.8691 12.9218 13.8066 12.8598L10.94 9.9998Z" fill="#00263A"/>
</svg>
