<svg width="16" height="14" viewBox="0 0 16 14" fill="none" xmlns="http://www.w3.org/2000/svg">
<path d="M8.55123 10.6992L8.26602 10.5011L7.98082 10.6992L4.17903 13.3394C4.179 13.3394 4.17897 13.3395 4.17894 13.3395C4.0178 13.4513 3.91322 13.4886 3.85591 13.4976C3.81907 13.5034 3.80432 13.4988 3.78589 13.4867C3.77235 13.4764 3.76794 13.4698 3.7668 13.468C3.76577 13.4664 3.76233 13.4609 3.75968 13.4458C3.75348 13.4104 3.75224 13.3198 3.81414 13.1499L3.81417 13.1499L3.81614 13.1443L5.30193 8.90952L5.42909 8.54709L5.11168 8.3308L1.28249 5.72158L1.28231 5.72146C1.12228 5.61251 1.0595 5.53286 1.03895 5.49445C1.03552 5.48804 1.0337 5.48361 1.03278 5.48097C1.03315 5.47956 1.03375 5.47759 1.03468 5.47497L1.03469 5.47497L1.03561 5.47234C1.03579 5.47185 1.03595 5.47135 1.03613 5.47082C1.03855 5.46349 1.04203 5.45294 1.07691 5.43572C1.12759 5.41069 1.23561 5.37981 1.43261 5.38191L1.43518 5.38192L6.1329 5.40781L6.49378 5.4098L6.60933 5.06792L8.04596 0.817586L8.04637 0.816375C8.1053 0.640554 8.16482 0.559589 8.1996 0.526632C8.22218 0.50523 8.23567 0.5 8.26602 0.5C8.29637 0.5 8.30986 0.50523 8.33245 0.526632C8.36722 0.559589 8.42675 0.640554 8.48567 0.816376L8.48608 0.817585L9.92271 5.06792L10.0383 5.4098L10.3991 5.40781L15.0969 5.38193L15.0994 5.3819C15.3 5.37979 15.4073 5.41095 15.4563 5.4353C15.4893 5.45167 15.4926 5.46134 15.4959 5.47081C15.4961 5.47132 15.4962 5.47183 15.4964 5.47235L15.4974 5.47497C15.4983 5.47759 15.4989 5.47956 15.4993 5.48097C15.4983 5.48361 15.4965 5.48804 15.4931 5.49445C15.4725 5.53286 15.4098 5.61251 15.2497 5.72146L15.2496 5.72158L11.4204 8.3308L11.1026 8.54734L11.2303 8.91007L12.7215 13.1447C12.7815 13.3152 12.7801 13.4067 12.7734 13.4437C12.7706 13.4596 12.7669 13.4656 12.7656 13.4676C12.7642 13.4698 12.7593 13.4771 12.7442 13.4882C12.7304 13.4977 12.7178 13.5038 12.6779 13.4976C12.6192 13.4884 12.5131 13.4505 12.353 13.3394L8.55123 10.6992Z" stroke="#D2D2D2"/>
</svg>
