<svg width="16" height="14" viewBox="0 0 16 14" fill="none" xmlns="http://www.w3.org/2000/svg">
<path d="M2.99621 13.8951C3.26117 14.0763 3.58132 14.0194 3.97324 13.7502L7.81514 11.1099L11.657 13.7502C12.049 14.0194 12.3746 14.0763 12.6341 13.8951C12.888 13.7139 12.9487 13.4137 12.7942 12.9788L11.2872 8.74399L15.1567 6.13477C15.5486 5.87074 15.7032 5.59636 15.5983 5.30645C15.4989 5.02689 15.2119 4.87676 14.7151 4.88193L9.96793 4.90782L8.51618 0.657482C8.36714 0.217435 8.1353 0 7.81514 0C7.49498 0 7.26314 0.217435 7.11411 0.657482L5.66235 4.90782L0.915179 4.88193C0.423901 4.87676 0.131343 5.02689 0.0319833 5.30645C-0.0728962 5.59636 0.081663 5.87074 0.473581 6.13477L4.34308 8.74399L2.84165 12.9788C2.68157 13.4137 2.74229 13.7139 2.99621 13.8951Z" fill="#FCB800"/>
</svg>
