<svg width="14" height="13" viewBox="0 0 14 13" fill="none" xmlns="http://www.w3.org/2000/svg">
<path d="M6.10034 0.853823C6.4649 0.102623 7.5351 0.102623 7.89966 0.853822L9.09438 3.31566C9.24013 3.616 9.52614 3.82379 9.85681 3.8696L12.5674 4.2451C13.3944 4.35968 13.7252 5.3775 13.1234 5.95635L11.1512 7.85335C10.9106 8.08478 10.8014 8.421 10.86 8.74965L11.3405 11.4436C11.4871 12.2656 10.6213 12.8946 9.8848 12.5012L7.47121 11.2117C7.17676 11.0544 6.82324 11.0544 6.52879 11.2117L4.1152 12.5012C3.37873 12.8946 2.51292 12.2656 2.65953 11.4436L3.14001 8.74964C3.19863 8.421 3.08938 8.08478 2.84879 7.85335L0.876629 5.95635C0.27485 5.3775 0.605559 4.35968 1.43265 4.2451L4.14319 3.8696C4.47386 3.82379 4.75987 3.616 4.90562 3.31566L6.10034 0.853823Z" fill="#DFBE13"/>
</svg>
