<svg width="32" height="32" viewBox="0 0 32 32" fill="none" xmlns="http://www.w3.org/2000/svg">
<path fill-rule="evenodd" clip-rule="evenodd" d="M26.318 5.44632L3.84123 14.1442C2.30975 14.7432 2.33227 15.6079 3.58223 15.9979L8.14652 17.4307C8.89419 17.6654 9.70725 17.5594 10.3697 17.1408L22.6694 9.36854C22.7946 9.28444 22.9172 9.22638 23.0299 9.19059L23.0337 9.18937C23.4866 9.04721 23.775 9.26595 23.4014 9.60026L12.6022 19.3945L10.8759 19.1351C11.1245 19.1724 11.6188 19.2467 12.6022 19.3945C12.6022 19.3945 12.2888 21.4802 12.1315 23.1833C12.1263 23.2402 12.1212 23.2966 12.1163 23.3525C12.115 23.367 12.1138 23.3815 12.1125 23.3959C12.11 23.4255 12.1075 23.455 12.1051 23.4842C12.1038 23.4995 12.1026 23.5147 12.1013 23.5298C12.0181 24.5514 12.0083 25.3579 12.1856 25.3513C12.6668 25.3333 13.047 25.0913 13.3567 24.7805L14.5434 23.6347C15.4802 22.7302 16.9333 22.6345 17.9805 23.4084L21.9938 26.3742C23.0636 26.9733 23.8181 26.6568 24.1052 25.3796L27.9283 7.27744C28.2661 5.67803 27.3596 5.05636 26.318 5.44632ZM29.8851 7.69076L26.0594 25.8056L26.0565 25.8182C25.8575 26.7032 25.3709 27.8521 24.1751 28.3992C22.9671 28.9519 21.786 28.5501 21.0166 28.1193L20.9066 28.0576L16.7919 25.0169C16.5301 24.8234 16.1668 24.8473 15.9326 25.0735L14.7579 26.2077C14.2448 26.718 13.4184 27.3067 12.2602 27.3499C10.9636 27.3983 10.4061 26.3647 10.2969 26.1296C10.148 25.8089 10.1015 25.5055 10.0828 25.3642C10.0391 25.036 10.0395 24.6717 10.0485 24.369C10.0675 23.728 10.142 22.9176 10.2254 22.1606C10.3102 21.3911 10.4099 20.626 10.4879 20.0565C10.527 19.7708 10.5609 19.5325 10.5851 19.365L10.6021 19.2491C9.63114 19.6179 8.55537 19.6553 7.5475 19.3389L2.98658 17.9071L2.98499 17.9066C2.50265 17.756 1.95809 17.5078 1.50746 17.0827C1.02698 16.6293 0.595838 15.9001 0.676213 14.9761C0.751076 14.1155 1.23682 13.5026 1.6536 13.1338C2.08042 12.7562 2.59561 12.4838 3.11265 12.2816L3.11944 12.2789L25.6065 3.57713L25.6168 3.57328C26.6048 3.20339 27.9935 3.16731 29.0363 4.18356C30.0458 5.16735 30.1246 6.55689 29.8851 7.69076Z" fill="#CCD4D8"/>
</svg>
