<svg width="25" height="24" viewBox="0 0 25 24" fill="none" xmlns="http://www.w3.org/2000/svg">
<path fill-rule="evenodd" clip-rule="evenodd" d="M12.5 2C12.5 2 14.034 2 15.4363 2.5931C15.4363 2.5931 16.7901 3.1657 17.8336 4.20925C17.8336 4.20925 18.8772 5.25281 19.4498 6.60658C19.4498 6.60658 20.0429 8.00882 20.0429 9.54286C20.0429 9.54286 20.0429 11.0769 19.4498 12.4791C19.4498 12.4791 18.8772 13.8329 17.8336 14.8765C17.8336 14.8765 16.79 15.92 15.4363 16.4926C15.4363 16.4926 14.034 17.0857 12.5 17.0857C12.5 17.0857 10.966 17.0857 9.56372 16.4926C9.56372 16.4926 8.20995 15.92 7.1664 14.8765C7.1664 14.8765 6.12284 13.8329 5.55024 12.4791C5.55024 12.4791 4.95714 11.0769 4.95714 9.54286C4.95714 9.54286 4.95714 8.00882 5.55024 6.60658C5.55024 6.60658 6.12284 5.25281 7.1664 4.20925C7.1664 4.20925 8.20995 3.1657 9.56372 2.5931C9.56372 2.5931 10.966 2 12.5 2ZM12.5 3.67619C12.5 3.67619 10.0699 3.67619 8.35164 5.3945C8.35164 5.3945 6.63333 7.1128 6.63333 9.54286C6.63333 9.54286 6.63333 11.9729 8.35164 13.6912C8.35164 13.6912 10.0699 15.4095 12.5 15.4095C12.5 15.4095 14.9301 15.4095 16.6484 13.6912C16.6484 13.6912 18.3667 11.9729 18.3667 9.54286C18.3667 9.54286 18.3667 7.1128 16.6484 5.3945C16.6484 5.3945 14.9301 3.67619 12.5 3.67619Z" fill="white"/>
<path d="M17.9481 18.5447C20.4765 20.0047 21.9361 22.5333 21.9361 22.5333C22.0472 22.7258 22.2302 22.8663 22.4449 22.9238C22.5157 22.9428 22.5886 22.9524 22.6619 22.9524C22.6707 22.9524 22.6795 22.9523 22.6882 22.952C22.8263 22.9476 22.9612 22.9092 23.0809 22.8402C23.3402 22.6905 23.5 22.4138 23.5 22.1143C23.5 22.1014 23.4997 22.0884 23.4991 22.0755C23.4929 21.9417 23.4547 21.8113 23.3878 21.6953C21.7036 18.7777 18.7862 17.0931 18.7862 17.0931C15.8688 15.4086 12.5 15.4086 12.5 15.4086C9.13119 15.4086 6.21378 17.0931 6.21378 17.0931C3.29661 18.7776 1.61251 21.6949 1.61251 21.6949C1.53898 21.8223 1.5 21.9672 1.5 22.1143L1.50014 22.1295C1.50137 22.1977 1.51092 22.2654 1.52858 22.3313C1.58613 22.546 1.72661 22.729 1.91911 22.8402C2.04651 22.9137 2.191 22.9524 2.3381 22.9524C2.35361 22.9524 2.36912 22.952 2.3846 22.9511C2.66705 22.9354 2.92253 22.7783 3.06395 22.5333C4.52353 20.0047 7.05195 18.5447 7.05195 18.5447C9.58036 17.0848 12.5 17.0848 12.5 17.0848C15.4196 17.0848 17.9481 18.5447 17.9481 18.5447Z" fill="white"/>
</svg>
