<svg width="24" height="24" viewBox="0 0 24 24" fill="none" xmlns="http://www.w3.org/2000/svg">
<g clip-path="url(#clip0_216_2645)">
<path d="M12 5.25C13.2375 5.25 14.25 6.2625 14.25 7.5C14.25 8.7375 13.2375 9.75 12 9.75C10.7625 9.75 9.75 8.7375 9.75 7.5C9.75 6.2625 10.7625 5.25 12 5.25ZM12 16.5C15.0375 16.5 18.525 17.9513 18.75 18.75H5.25C5.50875 17.94 8.97375 16.5 12 16.5ZM12 3C9.51375 3 7.5 5.01375 7.5 7.5C7.5 9.98625 9.51375 12 12 12C14.4862 12 16.5 9.98625 16.5 7.5C16.5 5.01375 14.4862 3 12 3ZM12 14.25C8.99625 14.25 3 15.7575 3 18.75V21H21V18.75C21 15.7575 15.0037 14.25 12 14.25Z" fill="white"/>
</g>
<defs>
<clipPath id="clip0_216_2645">
<rect width="24" height="24" fill="white"/>
</clipPath>
</defs>
</svg>
