<svg width="30" height="30" viewBox="0 0 30 30" fill="none" xmlns="http://www.w3.org/2000/svg">
<circle cx="15" cy="8.4375" r="5.625" stroke="white" stroke-width="1.5"/>
<path d="M22.292 16.6253L22.7773 16.0534V16.0534L22.292 16.6253ZM7.70796 16.6253L7.22273 16.0534L7.70796 16.6253ZM26.0625 22.8125C26.0625 20.2495 24.8615 17.8219 22.7773 16.0534L21.8068 17.1972C23.5905 18.7106 24.5625 20.7343 24.5625 22.8125H26.0625ZM24.5625 22.8125V25.1875H26.0625V22.8125H24.5625ZM23.3125 26.4375H6.6875V27.9375H23.3125V26.4375ZM5.4375 25.1875V22.8125H3.9375V25.1875H5.4375ZM7.22273 16.0534C5.13847 17.8219 3.9375 20.2494 3.9375 22.8125H5.4375C5.4375 20.7343 6.40952 18.7106 8.1932 17.1972L7.22273 16.0534ZM15 13.3125C12.1022 13.3125 9.30325 14.2881 7.22273 16.0534L8.1932 17.1972C9.98061 15.6806 12.4277 14.8125 15 14.8125V13.3125ZM22.7773 16.0534C20.6967 14.2881 17.8978 13.3125 15 13.3125V14.8125C17.5723 14.8125 20.0194 15.6806 21.8068 17.1972L22.7773 16.0534ZM6.6875 26.4375C5.99714 26.4375 5.4375 25.8779 5.4375 25.1875H3.9375C3.9375 26.7063 5.16872 27.9375 6.6875 27.9375V26.4375ZM24.5625 25.1875C24.5625 25.8779 24.0029 26.4375 23.3125 26.4375V27.9375C24.8313 27.9375 26.0625 26.7063 26.0625 25.1875H24.5625Z" fill="white"/>
</svg>
