<svg width="32" height="32" viewBox="0 0 32 32" fill="none" xmlns="http://www.w3.org/2000/svg">
<path fill-rule="evenodd" clip-rule="evenodd" d="M4.12606 4.12606C5.90536 2.34677 8.56787 1.6665 11.9998 1.6665H19.9998C23.4318 1.6665 26.0943 2.34677 27.8736 4.12606C29.6529 5.90536 30.3332 8.56787 30.3332 11.9998V19.9998C30.3332 23.4318 29.6529 26.0943 27.8736 27.8736C26.0943 29.6529 23.4318 30.3332 19.9998 30.3332H11.9998C8.56787 30.3332 5.90536 29.6529 4.12606 27.8736C2.34677 26.0943 1.6665 23.4318 1.6665 19.9998V11.9998C1.6665 8.56787 2.34677 5.90536 4.12606 4.12606ZM5.54028 5.54028C4.31957 6.76099 3.6665 8.76513 3.6665 11.9998V19.9998C3.6665 23.2345 4.31957 25.2387 5.54028 26.4594C6.76099 27.6801 8.76513 28.3332 11.9998 28.3332H19.9998C23.2345 28.3332 25.2387 27.6801 26.4594 26.4594C27.6801 25.2387 28.3332 23.2345 28.3332 19.9998V11.9998C28.3332 8.76513 27.6801 6.76099 26.4594 5.54028C25.2387 4.31957 23.2345 3.6665 19.9998 3.6665H11.9998C8.76513 3.6665 6.76099 4.31957 5.54028 5.54028Z" fill="#CCD4D8"/>
<path fill-rule="evenodd" clip-rule="evenodd" d="M19.016 11.2208C18.9666 11.1322 18.91 11.0437 18.8449 10.9565C18.2476 10.1556 17.3884 9.99984 16.8571 9.99984H14.1067C13.3947 9.99984 12.7489 10.298 12.3 10.7782C12.2629 10.7404 12.224 10.7031 12.1833 10.6666C11.5735 10.1197 10.8717 9.99984 10.3493 9.99984H8.59983C8.09051 9.99984 7.30418 10.1128 6.68212 10.7495C6.05913 11.3871 5.99984 12.1452 5.99984 12.4869C5.99984 12.8857 6.10091 13.3301 6.19957 13.6852C6.31456 14.0991 6.48615 14.5986 6.72555 15.166C7.20443 16.3011 7.96947 17.7432 9.14087 19.356C10.8792 21.8005 13.473 23.3332 16.1027 23.3332C16.6572 23.3332 17.5252 23.3023 18.2451 22.8284C18.6175 22.5833 18.8652 22.2892 19.0297 21.9941C19.1424 22.1163 19.261 22.2425 19.3717 22.3515C19.567 22.5438 19.8597 22.8084 20.2544 23.0116C20.6912 23.2365 21.146 23.3332 21.6035 23.3332H23.353C23.8438 23.3332 24.736 23.224 25.3982 22.4724C26.1373 21.6337 26.0556 20.6316 25.8743 20.0282L25.8674 20.0054L25.86 19.9827C25.666 19.3891 25.284 18.8424 25.0072 18.4775C24.6933 18.0636 24.33 17.6493 24.0012 17.2928C23.8475 17.1261 23.6963 16.9667 23.5548 16.8199C23.7084 16.5943 23.8782 16.3408 24.0511 16.0751C24.3442 15.6246 24.6603 15.1175 24.924 14.6413C25.1408 14.2498 25.4367 13.6816 25.5712 13.1366C25.6865 12.7149 25.8241 11.8446 25.2422 11.0233C24.6024 10.1204 23.6145 9.99984 23.1065 9.99984H21.357C20.7691 9.99984 20.172 10.1599 19.6579 10.542C19.3757 10.7517 19.1685 10.9913 19.016 11.2208ZM17.3502 12.6328C17.3502 12.1953 17.2254 11.9998 16.8571 11.9998H14.1067C13.8275 11.9998 13.6611 12.204 13.6611 12.3936C13.6611 12.5517 13.7528 12.6634 13.8699 12.8061C13.9443 12.8967 14.0289 12.9997 14.1067 13.135C14.2187 13.3299 14.3166 13.5915 14.3497 13.9791C14.3503 13.986 14.3509 13.9929 14.3514 13.9998C14.3532 14.023 14.3548 14.0466 14.3562 14.0707V16.6023C14.3562 17.1565 14.2552 17.2586 14.0324 17.2586C13.8327 17.2586 13.537 17.0166 13.1999 16.6023C13.0415 16.4077 12.874 16.175 12.703 15.9114C12.5884 15.7348 12.4722 15.5443 12.3562 15.3421C11.9178 14.5782 11.4815 13.6477 11.1394 12.6678C10.9671 12.1923 10.7978 11.9998 10.3493 11.9998H8.59983C8.10083 11.9998 7.99984 12.2303 7.99984 12.4869C7.99984 12.9419 8.59389 15.2023 10.7651 18.189C12.2116 20.2278 14.2492 21.3332 16.1027 21.3332C17.2165 21.3332 17.3531 21.0882 17.3531 20.6653C17.3531 20.371 17.3508 20.1171 17.3488 19.8979C17.3377 18.6656 17.3365 18.5332 17.8105 18.5332C18.0459 18.5332 18.4364 18.6396 19.2894 19.4009C19.308 19.4176 19.3269 19.4345 19.346 19.4518C19.4126 19.5121 19.4819 19.5762 19.5541 19.6444C19.9078 19.9918 20.1737 20.282 20.3901 20.5184C20.9005 21.0757 21.1363 21.3332 21.6035 21.3332H23.353C23.852 21.3332 24.1045 21.0882 23.9589 20.604C23.8694 20.33 23.641 19.9779 23.353 19.607C23.2894 19.5251 23.2229 19.4423 23.1544 19.3592C23.1472 19.3505 23.1401 19.3418 23.1329 19.3332C22.584 18.6713 21.9109 17.9958 21.5438 17.6273C21.3948 17.4778 21.2962 17.3788 21.2768 17.3519C21.0184 17.0253 21.0927 16.8794 21.2768 16.5878C21.2789 16.5858 22.2849 15.1955 22.9873 13.9998C22.9891 13.9967 22.9909 13.9936 22.9927 13.9905C23.0317 13.9241 23.0697 13.8583 23.1065 13.7935C23.371 13.3273 23.575 12.9068 23.6352 12.6328C23.7451 12.2682 23.6352 11.9998 23.1065 11.9998H21.357C20.9115 11.9998 20.7065 12.2303 20.5966 12.4869C20.5966 12.4869 20.111 13.6488 19.3502 14.8133C19.2576 14.9549 19.161 15.0966 19.0607 15.2362C18.8686 15.5037 18.6628 15.7637 18.4462 16.0015C18.4341 16.0134 18.4221 16.0251 18.4104 16.0365C18.0281 16.4086 17.8455 16.5294 17.6294 16.5294C17.5195 16.5294 17.3502 16.4011 17.3502 16.0365V12.6328ZM22.7704 16.0234C22.751 16.0029 22.7558 16.0069 22.7746 16.0278L22.7704 16.0234Z" fill="#CCD4D8"/>
</svg>
