<svg width="32" height="32" viewBox="0 0 32 32" fill="none" xmlns="http://www.w3.org/2000/svg">
<path fill-rule="evenodd" clip-rule="evenodd" d="M1.6665 15.9998C1.6665 8.11422 8.11422 1.6665 15.9998 1.6665C23.8855 1.6665 30.3332 8.11422 30.3332 15.9998C30.3332 23.8855 23.8855 30.3332 15.9998 30.3332C13.5711 30.3332 11.1432 29.6993 9.06694 28.5445L5.18521 29.6536C3.44906 30.1496 1.83159 28.5704 2.28594 26.8229L3.33549 22.7861C2.30881 20.7483 1.6665 18.4457 1.6665 15.9998ZM15.9998 3.6665C9.21879 3.6665 3.6665 9.21879 3.6665 15.9998C3.6665 18.2125 4.28107 20.3188 5.28219 22.1959C5.40031 22.4174 5.43082 22.6752 5.36766 22.9181L4.22158 27.3261C4.15668 27.5758 4.38775 27.8014 4.63576 27.7305L8.92512 26.505C9.19125 26.4289 9.47699 26.4666 9.71433 26.609C11.5571 27.7147 13.779 28.3332 15.9998 28.3332C22.7809 28.3332 28.3332 22.7809 28.3332 15.9998C28.3332 9.21879 22.7809 3.6665 15.9998 3.6665Z" fill="#CCD4D8"/>
<path d="M22 19.798C22 20.014 21.9519 20.236 21.8498 20.452C21.7476 20.668 21.6154 20.872 21.4412 21.064C21.1467 21.388 20.8222 21.622 20.4557 21.772C20.0951 21.922 19.7046 22 19.2839 22C18.671 22 18.016 21.856 17.325 21.562C16.634 21.268 15.9429 20.872 15.2579 20.374C14.5669 19.87 13.9119 19.312 13.2869 18.694C12.668 18.07 12.1092 17.416 11.6104 16.732C11.1177 16.048 10.7211 15.364 10.4326 14.686C10.1442 14.002 10 13.348 10 12.724C10 12.316 10.0721 11.926 10.2163 11.566C10.3605 11.2 10.5889 10.864 10.9074 10.564C11.2919 10.186 11.7126 10 12.1572 10C12.3255 10 12.4937 10.036 12.644 10.108C12.8002 10.18 12.9384 10.288 13.0466 10.444L14.4407 12.406C14.5488 12.556 14.6269 12.694 14.681 12.826C14.7351 12.952 14.7651 13.078 14.7651 13.192C14.7651 13.336 14.7231 13.48 14.639 13.618C14.5608 13.756 14.4467 13.9 14.3025 14.044L13.8458 14.518C13.7797 14.584 13.7496 14.662 13.7496 14.758C13.7496 14.806 13.7556 14.848 13.7677 14.896C13.7857 14.944 13.8037 14.98 13.8157 15.016C13.9239 15.214 14.1102 15.472 14.3746 15.784C14.645 16.096 14.9334 16.414 15.2459 16.732C15.5704 17.05 15.8828 17.344 16.2013 17.614C16.5138 17.878 16.7722 18.058 16.9765 18.166C17.0065 18.178 17.0426 18.196 17.0846 18.214C17.1327 18.232 17.1808 18.238 17.2349 18.238C17.337 18.238 17.4151 18.202 17.4812 18.136L17.9379 17.686C18.0881 17.536 18.2323 17.422 18.3706 17.35C18.5088 17.266 18.647 17.224 18.7972 17.224C18.9114 17.224 19.0315 17.248 19.1637 17.302C19.2959 17.356 19.4342 17.434 19.5844 17.536L21.5734 18.946C21.7296 19.054 21.8378 19.18 21.9039 19.33C21.9639 19.48 22 19.63 22 19.798Z" stroke="#CCD4D8" stroke-width="1.5" stroke-miterlimit="10"/>
</svg>
