<svg width="32" height="32" viewBox="0 0 32 32" fill="none" xmlns="http://www.w3.org/2000/svg">
<path fill-rule="evenodd" clip-rule="evenodd" d="M5.20694 7.87394C4.25306 8.82782 3.6665 10.2274 3.6665 12.0002V20.0002C3.6665 21.7729 4.25306 23.1725 5.20694 24.1264C6.16083 25.0803 7.56042 25.6668 9.33317 25.6668H22.6665C24.4393 25.6668 25.8388 25.0803 26.7927 24.1264C27.7466 23.1725 28.3332 21.7729 28.3332 20.0002V12.0002C28.3332 10.2274 27.7466 8.82782 26.7927 7.87394C25.8388 6.92005 24.4393 6.3335 22.6665 6.3335H9.33317C7.56042 6.3335 6.16083 6.92005 5.20694 7.87394ZM3.79273 6.45972C5.17218 5.08028 7.10592 4.3335 9.33317 4.3335H22.6665C24.8938 4.3335 26.8275 5.08028 28.2069 6.45972C29.5864 7.83917 30.3332 9.77291 30.3332 12.0002V20.0002C30.3332 22.2274 29.5864 24.1612 28.2069 25.5406C26.8275 26.92 24.8938 27.6668 22.6665 27.6668H9.33317C7.10592 27.6668 5.17218 26.92 3.79273 25.5406C2.41328 24.1612 1.6665 22.2274 1.6665 20.0002V12.0002C1.6665 9.77291 2.41328 7.83917 3.79273 6.45972Z" fill="#CCD4D8"/>
<path fill-rule="evenodd" clip-rule="evenodd" d="M13.9061 13.4553C13.8525 13.5802 13.7998 13.7965 13.7998 14.1335V18.1335C13.7998 18.6465 13.9786 18.7719 13.9996 18.784C14.0124 18.7914 14.2088 18.8953 14.6853 18.6093L17.9964 16.6227C18.3978 16.3494 18.4332 16.1302 18.4332 16.0668C18.4332 16.0035 18.3978 15.7842 17.9964 15.511L14.6853 13.5243C14.4394 13.3768 14.2556 13.3215 14.1401 13.3072C14.0843 13.3004 14.0486 13.3035 14.0293 13.3069C14.0111 13.3101 14.003 13.3144 13.9996 13.3163C13.9961 13.3183 13.9866 13.3243 13.9718 13.3418C13.9564 13.3601 13.9321 13.3949 13.9061 13.4553ZM13.0001 11.584C13.8857 11.0731 14.9018 11.3218 15.7143 11.8093L19.0477 13.8093C19.0613 13.8175 19.0747 13.826 19.0879 13.8348C19.8696 14.3559 20.4332 15.1311 20.4332 16.0668C20.4332 17.0025 19.8696 17.7777 19.0879 18.2989C19.0747 18.3077 19.0613 18.3162 19.0477 18.3243L15.7143 20.3243C14.8575 20.8384 13.854 21.009 13.0001 20.5163C12.1544 20.0285 11.7998 19.0871 11.7998 18.1335V14.1335C11.7998 13.1092 12.1163 12.0939 13.0001 11.584Z" fill="#CCD4D8"/>
</svg>
