<svg width="107" height="50" viewBox="0 0 107 50" fill="none" xmlns="http://www.w3.org/2000/svg">
<g clip-path="url(#clip0_248_10293)">
<path d="M90.0233 7.36483C82.8775 7.39031 77.4851 12.7744 77.5126 19.8559C77.54 26.9419 83.0781 32.4876 90.1091 32.469C97.2633 32.45 102.665 27.0783 102.648 20.0018C102.63 12.8907 97.0849 7.33992 90.0233 7.36483ZM90.1053 30.6585C84.0881 30.6743 79.3482 25.929 79.3249 19.8649C79.3014 13.8046 83.9163 9.197 90.0313 9.17496C96.0743 9.1535 100.82 13.9042 100.836 19.9899C100.851 26.0454 96.2272 30.6423 90.1053 30.6585Z" fill="#BF9959"/>
<path d="M22.1819 17.0232C21.4541 12.562 18.9905 9.6134 14.5316 8.45084C11.4317 7.64296 8.2682 7.97114 5.12577 7.93573C5.09631 7.93522 5.06642 7.9723 5.01587 8.0062V31.9119C6.72695 31.9119 8.40727 31.9583 10.0833 31.8969C11.3458 31.8506 12.6242 31.7724 13.8581 31.5247C18.1239 30.6687 20.9146 28.1824 21.96 23.9063C22.5158 21.6329 22.5578 19.3259 22.1819 17.0232ZM20.339 23.7265C19.5832 27.1822 17.4271 29.2446 13.959 29.971C11.5633 30.473 9.14309 30.2958 6.68875 30.3379V9.50794C9.11767 9.55739 11.5068 9.3616 13.8721 9.84246C17.3834 10.5565 19.5822 12.6165 20.3427 16.1222C20.8917 18.6507 20.8925 21.1985 20.3391 23.7265H20.339Z" fill="#BF9959"/>
<path d="M58.3523 21.9585V31.8092H58.9048V20.9784H58.8037L58.3523 21.9585Z" fill="#BF9959"/>
<path d="M66.1252 21.0627V31.8092H66.6776V22.1516L66.6259 22.0283L66.1252 21.0627Z" fill="#BF9959"/>
<path d="M61.2112 23.7598H61.1782V31.8807H61.6082V24.5247L61.2112 23.7598Z" fill="#BF9959"/>
<path d="M63.6847 23.7598H63.6519V31.8807H64.0818V24.5247L63.6847 23.7598Z" fill="#BF9959"/>
<path d="M56.0561 1.66667L56.0504 13.3068C56.0504 13.3068 55.9248 13.9865 56.8848 13.9688C57.4699 13.9575 62.2776 13.9528 65.9403 13.9498C68.2714 13.9482 70.1597 15.8313 70.1597 18.1545V31.8613H68.8193V18.6112C68.8193 17.0204 67.5259 15.731 65.9305 15.731H56.0633V31.8596H54.5422V3.64192L56.0561 1.6666V1.66667Z" fill="#BF9959"/>
<path d="M45.7883 31.867C45.4302 31.137 44.1542 27.9847 43.8127 27.2481C43.6894 26.9821 43.5348 26.8613 43.1882 26.8618C38.6906 26.8729 35.8617 27.018 31.3642 27.008C31.0213 27.0072 30.8547 27.1143 30.7415 27.3921L29.1347 31.8527L26.9841 31.867C30.0514 24.4699 32.4815 18.6719 36.7879 8.28668C36.8717 8.28826 38.1035 8.28984 38.1873 8.29142C41.3484 16.0917 44.4137 24.0663 47.5752 31.867H45.7883ZM42.9077 25.2151C40.7468 19.8084 39.7311 16.6981 37.589 11.3388C37.5252 11.3449 37.4609 11.3509 37.397 11.3568C35.1863 16.7072 34.0122 19.8087 31.7782 25.2151H42.9077Z" fill="#BF9959"/>
<path d="M38.5643 45.3705H37.9017V38.1899L35.2512 44.1472H34.5886L31.8889 38.1899V45.3705H31.2263V36.6608H31.8889L34.9321 43.3765L37.9017 36.6608H38.5643V45.3705Z" fill="white"/>
<path d="M47.1216 45.3705H46.4099L45.6491 43.2542H41.5751L40.8143 45.3705H40.1026L43.3176 36.6608H43.9066L47.1216 45.3705ZM43.6121 37.5415L41.7837 42.667H45.4405L43.6121 37.5415Z" fill="white"/>
<path d="M54.5769 45.3705H53.8039L51.7178 41.3581H49.3127V45.3705H48.6501V36.6608H51.9755C52.7117 36.6608 53.313 36.8687 53.7793 37.2846C54.2456 37.6924 54.4788 38.2633 54.4788 38.9972C54.4788 39.6415 54.2988 40.1675 53.9388 40.5752C53.5789 40.983 53.088 41.2399 52.4663 41.3459L54.5769 45.3705ZM53.2885 40.3306C53.6402 40.037 53.8161 39.5966 53.8161 39.0095C53.8161 38.4223 53.6402 37.9819 53.2885 37.6883C52.9449 37.3947 52.4786 37.248 51.8896 37.248H49.3127V40.771H51.8896C52.4786 40.771 52.9449 40.6242 53.2885 40.3306Z" fill="white"/>
<path d="M63.0589 45.3705H62.2736L59.4635 40.4896L57.3775 43.0095V45.3705H56.7148V36.6608H57.3775V42.1043L61.8073 36.6608H62.6049L59.9053 39.9881L63.0589 45.3705Z" fill="white"/>
<path d="M69.9249 45.3705H64.6238V36.6608H69.9249V37.248H65.2865V40.6853H69.2377V41.2725H65.2865V44.7833H69.9249V45.3705Z" fill="white"/>
<path d="M76.8537 37.248H74.24V45.3705H73.5774V37.248H70.9759V36.6608H76.8537V37.248Z" fill="white"/>
</g>
<defs>
<clipPath id="clip0_248_10293">
<rect width="97.562" height="45" fill="white" transform="translate(5.01562 1.66666)"/>
</clipPath>
</defs>
</svg>
