<svg width="87" height="40" viewBox="0 0 87 40" fill="none" xmlns="http://www.w3.org/2000/svg">
<g clip-path="url(#clip0_126_5133)">
<path d="M75.3269 5.06505C68.9948 5.08769 64.2165 9.87357 64.2409 16.1682C64.2652 22.4669 69.1726 27.3964 75.403 27.3798C81.7424 27.3629 86.5294 22.5882 86.5141 16.2979C86.4982 9.97697 81.5843 5.04291 75.3269 5.06505ZM75.3996 25.7705C70.0676 25.7845 65.8675 21.5665 65.8468 16.1762C65.826 10.7893 69.9154 6.69364 75.334 6.67405C80.6888 6.65498 84.8943 10.8778 84.9078 16.2873C84.9212 21.67 80.8243 25.7561 75.3996 25.7705Z" fill="#BF9959"/>
<path d="M15.2113 13.6502C14.5664 9.68478 12.3834 7.06378 8.43225 6.03039C5.68538 5.31227 2.88213 5.60399 0.0975705 5.57251C0.0714639 5.57206 0.0449737 5.60502 0.000183105 5.63515V26.8847C1.51641 26.8847 3.00537 26.9259 4.49057 26.8713C5.60923 26.8302 6.74204 26.7607 7.83545 26.5405C11.6155 25.7796 14.0884 23.5696 15.0147 19.7686C15.5072 17.7478 15.5444 15.6972 15.2113 13.6502ZM13.5783 19.6088C12.9086 22.6805 10.998 24.5138 7.9249 25.1595C5.80202 25.6056 3.6574 25.4482 1.48256 25.4855V6.97004C3.63487 7.01399 5.75193 6.83995 7.84787 7.26738C10.9593 7.90212 12.9077 9.73322 13.5816 12.8494C14.068 15.097 14.0688 17.3617 13.5784 19.6088H13.5783Z" fill="#BF9959"/>
<path d="M47.2626 18.0372V26.7933H47.7522V17.166H47.6625L47.2626 18.0372Z" fill="#BF9959"/>
<path d="M54.1505 17.2409V26.7933H54.6399V18.2088L54.5941 18.0992L54.1505 17.2409Z" fill="#BF9959"/>
<path d="M49.796 19.6384H49.7667V26.8569H50.1478V20.3182L49.796 19.6384Z" fill="#BF9959"/>
<path d="M51.9878 19.6384H51.9587V26.8569H52.3398V20.3182L51.9878 19.6384Z" fill="#BF9959"/>
<path d="M45.2279 2.9513e-06L45.2229 10.3468C45.2229 10.3468 45.1116 10.951 45.9623 10.9352C46.4808 10.9252 50.7409 10.921 53.9865 10.9183C56.0521 10.9169 57.7254 12.5907 57.7254 14.6558V26.8397H56.5377V15.0618C56.5377 13.6478 55.3915 12.5017 53.9779 12.5017H45.2344V26.8382H43.8865V1.75579L45.2279 -6.10352e-05V2.9513e-06Z" fill="#BF9959"/>
<path d="M36.1294 26.8447C35.8122 26.1958 34.6814 23.3939 34.3789 22.739C34.2696 22.5026 34.1326 22.3952 33.8255 22.3957C29.84 22.4055 27.3334 22.5346 23.348 22.5256C23.0441 22.5249 22.8965 22.6201 22.7962 22.867L21.3724 26.8321L19.4667 26.8447C22.1847 20.2695 24.3381 15.1158 28.1541 5.88446C28.2283 5.88586 29.3198 5.88727 29.3941 5.88867C32.1952 12.8223 34.9114 19.9108 37.7129 26.8447H36.1294ZM33.5769 20.932C31.6621 16.126 30.7621 13.3613 28.8639 8.59741C28.8074 8.60286 28.7504 8.60817 28.6937 8.61348C26.7348 13.3694 25.6944 16.1262 23.7149 20.932H33.5769Z" fill="#BF9959"/>
<path d="M29.7282 38.8478H29.141V32.4651L26.7923 37.7605H26.2052L23.813 32.4651V38.8478H23.2258V31.1059H23.813L26.5096 37.0755L29.141 31.1059H29.7282V38.8478Z" fill="white"/>
<path d="M37.3109 38.8478H36.6803L36.0061 36.9667H32.3961L31.7219 38.8478H31.0913L33.9401 31.1059H34.4621L37.3109 38.8478ZM34.2011 31.8888L32.581 36.4448H35.8213L34.2011 31.8888Z" fill="white"/>
<path d="M43.9173 38.8478H43.2322L41.3837 35.2813H39.2525V38.8478H38.6654V31.1059H41.6121C42.2645 31.1059 42.7973 31.2907 43.2105 31.6604C43.6237 32.0229 43.8303 32.5303 43.8303 33.1827C43.8303 33.7554 43.6708 34.223 43.3518 34.5854C43.0329 34.9479 42.5979 35.1762 42.047 35.2704L43.9173 38.8478ZM42.7755 34.3679C43.0872 34.107 43.2431 33.7155 43.2431 33.1936C43.2431 32.6717 43.0872 32.2802 42.7755 32.0193C42.4711 31.7583 42.0579 31.6278 41.536 31.6278H39.2525V34.7594H41.536C42.0579 34.7594 42.4711 34.6289 42.7755 34.3679Z" fill="white"/>
<path d="M51.4333 38.8478H50.7374L48.2474 34.5093L46.3989 36.7492V38.8478H45.8117V31.1059H46.3989V35.9446L50.3242 31.1059H51.031L48.6388 34.0635L51.4333 38.8478Z" fill="white"/>
<path d="M57.5174 38.8478H52.82V31.1059H57.5174V31.6278H53.4072V34.6833H56.9085V35.2052H53.4072V38.3259H57.5174V38.8478Z" fill="white"/>
<path d="M63.6572 31.6278H61.3411V38.8478H60.7539V31.6278H58.4488V31.1059H63.6572V31.6278Z" fill="white"/>
</g>
<defs>
<clipPath id="clip0_126_5133">
<rect width="86.4516" height="40" fill="white"/>
</clipPath>
</defs>
</svg>
